# xmcd
#
# Track frame offsets:
#	150
#	15665
#	34084
#	48894
#	66978
#	82290
#	97433
#	117680
#	135084
#	152394
#	172625
#	186826
#	201377
#	218107
#	231148
#	247572
#	268075
#
# Disc length: 3763 seconds
#
# Revision: 1
# Processed by: cddbd v1.5.2PL0 Copyright (c) Steve Scherf et al.
# Submitted via: audiograbber 1.83.01
#
DISCID=e70eb111
DTITLE=LeAnn Rimes - Remnants (Deluxe)
DYEAR=2016
DGENRE=Country
TTITLE0=The Story
TTITLE1=Love Line
TTITLE2=Outrageous Love
TTITLE3=Mother
TTITLE4=Remnants
TTITLE5=Long Live Love
TTITLE6=How to Kiss a Boy
TTITLE7=Love is Love is Love
TTITLE8=Learning Your Language
TTITLE9=I Couldn't Do That to Me
TTITLE10=Humbled
TTITLE11=Do It Wrong With Me
TTITLE12=Dang Dang
TTITLE13=Give Me Something (I Can't Give Myself)
TTITLE14=Love Line (The Live Church Session)
TTITLE15=How to Kiss a Boy (The Live Church Session)
TTITLE16=The Story (The Live Church Session)
EXTD=
EXTT0=
EXTT1=
EXTT2=
EXTT3=
EXTT4=
EXTT5=
EXTT6=
EXTT7=
EXTT8=
EXTT9=
EXTT10=
EXTT11=
EXTT12=
EXTT13=
EXTT14=
EXTT15=
EXTT16=
PLAYORDER=
